<svg width="674" height="137" viewBox="0 0 674 137" fill="none" xmlns="http://www.w3.org/2000/svg">
<path fill-rule="evenodd" clip-rule="evenodd" d="M194.86 136.911C188.066 136.911 182.493 135.823 178.14 133.647C173.787 131.47 170.55 128.577 168.427 124.968C166.304 121.359 165.242 117.377 165.242 113.025C165.242 105.701 168.109 99.7546 173.841 95.1906C179.573 90.6256 188.172 88.3436 199.637 88.3436H219.701V86.4326C219.701 81.0186 218.162 77.0376 215.083 74.4896C212.005 71.9416 208.182 70.6676 203.618 70.6676C199.478 70.6676 195.868 71.6496 192.79 73.6136C189.711 75.5776 187.8 78.4706 187.058 82.2926H167.153C167.683 76.5606 169.621 71.5696 172.965 67.3246C176.308 63.0776 180.635 59.8136 185.943 57.5316C191.251 55.2496 197.195 54.1076 203.777 54.1076C215.03 54.1076 223.894 56.9216 230.37 62.5476C236.845 68.1736 240.083 76.1356 240.083 86.4336V135.001H222.726L220.816 122.262C218.481 126.508 215.216 130.011 211.023 132.772C206.829 135.531 201.442 136.911 194.86 136.911ZM199.479 120.987C205.318 120.987 209.856 119.076 213.094 115.254C216.331 111.432 218.375 106.708 219.224 101.082H201.867C196.454 101.082 192.579 102.064 190.244 104.027C187.909 105.991 186.74 108.406 186.74 111.272C186.74 114.351 187.909 116.74 190.244 118.438C192.579 120.138 195.657 120.987 199.479 120.987ZM271.338 135L242.357 56.0176H263.695L283.759 115.733L303.823 56.0176H325.161L296.021 135H271.338ZM341.924 43.7566C338.208 43.7566 335.156 42.6416 332.768 40.4126C330.379 38.1826 329.186 35.3706 329.186 31.9736C329.186 28.5766 330.379 25.7896 332.768 23.6136C335.156 21.4376 338.209 20.3496 341.924 20.3496C345.639 20.3496 348.691 21.4376 351.08 23.6136C353.468 25.7906 354.664 28.5766 354.664 31.9736C354.664 35.3706 353.469 38.1836 351.08 40.4126C348.691 42.6416 345.639 43.7566 341.924 43.7566ZM331.733 135V56.0176H352.114V135H331.733ZM404.707 136.911C396.745 136.911 389.685 135.213 383.528 131.816C377.37 128.419 372.541 123.642 369.037 117.484C365.535 111.327 363.782 104.214 363.782 96.1456C363.782 87.9716 365.507 80.6996 368.957 74.3296C372.407 67.9606 377.185 62.9976 383.288 59.4406C389.392 55.8836 396.585 54.1056 404.866 54.1056C412.615 54.1056 419.462 55.8046 425.407 59.2016C431.352 62.5986 435.996 67.2426 439.34 73.1346C442.685 79.0256 444.357 85.5816 444.357 92.8006C444.357 93.9676 444.331 95.1896 444.278 96.4626C444.224 97.7376 444.146 99.0636 444.038 100.444H384.006C384.431 106.602 386.58 111.432 390.455 114.935C394.331 118.438 399.028 120.19 404.547 120.19C408.688 120.19 412.165 119.261 414.978 117.403C417.791 115.545 419.888 113.13 421.267 110.158H441.968C440.481 115.147 438.013 119.686 434.562 123.773C431.113 127.86 426.866 131.071 421.823 133.406C416.781 135.743 411.076 136.911 404.707 136.911ZM404.866 70.6676C399.876 70.6676 395.47 72.0736 391.649 74.8876C387.827 77.7016 385.385 81.9736 384.323 87.7066H423.655C423.336 82.5046 421.426 78.3646 417.922 75.2856C414.42 72.2066 410.068 70.6676 404.866 70.6676ZM454.432 135V56.0176H472.585L474.495 70.8266C477.363 65.7316 481.264 61.6716 486.2 58.6446C491.137 55.6196 496.949 54.1066 503.637 54.1066V75.6046H497.905C493.446 75.6046 489.465 76.2946 485.962 77.6746C482.46 79.0546 479.726 81.4436 477.762 84.8396C475.798 88.2366 474.817 92.9606 474.817 99.0126V135.001H454.432V135ZM541.578 135L582.343 23.5336H605.274L646.039 135H624.383L615.466 109.203H571.994L562.918 135H541.578ZM577.566 93.2786H609.892L593.65 46.9416L577.566 93.2786ZM653.248 135V23.5336H673.63V135H653.248Z" fill="black"/>
<path fill-rule="evenodd" clip-rule="evenodd" d="M63.6668 106.752L36.1738 135.705C35.4748 136.441 34.5118 136.895 33.4468 136.895H4.6268C3.6388 136.895 2.65179 136.499 1.89779 135.705C0.392793 134.12 0.392793 131.547 1.89779 129.96L124.142 1.18999C124.84 0.453987 125.804 0 126.869 0H155.716C156.703 0 157.69 0.396987 158.443 1.18999C159.948 2.77499 159.948 5.34799 158.443 6.93399L119.626 47.815L100.082 68.398L158.53 129.954L158.519 129.965C159.214 130.698 159.645 131.71 159.645 132.826C159.645 135.061 157.924 136.873 155.803 136.873L127.313 136.893C126.217 136.995 125.088 136.603 124.248 135.721L80.2038 89.334L63.6668 106.752Z" fill="url(#paint0_linear_1403_3)"/>
<path fill-rule="evenodd" clip-rule="evenodd" d="M70.673 44.263L55.147 60.614L55.144 60.612C54.739 61.031 54.184 61.291 53.571 61.291C52.958 61.291 52.402 61.032 51.998 60.612L51.993 60.616L37.057 44.792C35.988 43.582 34.876 42.427 33.767 41.318L33.72 41.31L33.744 41.283L1.13 6.93399C0.432005 6.19899 0 5.184 0 4.062C0 1.819 1.727 0 3.858 0H32.713V0.0109863C33.701 0.0109863 34.689 0.410001 35.44 1.207L70.47 38.318C70.539 38.381 70.607 38.448 70.674 38.518C72.18 40.103 72.18 42.676 70.673 44.263Z" fill="#E03BB8"/>
<defs>
<linearGradient id="paint0_linear_1403_3" x1="59.3032" y1="169.035" x2="156.848" y2="0.0826012" gradientUnits="userSpaceOnUse">
<stop stop-color="#2C38E6"/>
<stop offset="0.8325" stop-color="#E03BB8"/>
</linearGradient>
</defs>
</svg>
