<svg width="720" height="720" viewBox="0 0 720 720" fill="none" xmlns="http://www.w3.org/2000/svg">
  <defs>
    <linearGradient id="a" x1="147" y1="105" x2="612" y2="633" gradientUnits="userSpaceOnUse"><stop stop-color="#FFE7A3"/><stop offset=".52" stop-color="#FFB22D"/><stop offset="1" stop-color="#FFF2C6"/></linearGradient>
    <linearGradient id="b" x1="145" y1="201" x2="472" y2="587" gradientUnits="userSpaceOnUse"><stop stop-color="#0C344C"/><stop offset="1" stop-color="#78959E"/></linearGradient>
    <filter id="grain"><feTurbulence type="fractalNoise" baseFrequency=".88" numOctaves="3" stitchTiles="stitch"/><feColorMatrix type="saturate" values="0"/><feComponentTransfer><feFuncA type="table" tableValues="0 .15"/></feComponentTransfer><feBlend mode="multiply" in2="SourceGraphic"/></filter>
  </defs>
  <rect width="720" height="720" fill="#FFFDF8"/>
  <path d="M134 329c-14-106 72-189 174-165 71 16 105-47 182-18 88 34 67 129 113 191 53 72 29 162-58 198-80 33-145-15-225 15-85 32-167 10-199-65-19-45 20-99 13-156Z" fill="url(#a)" opacity=".75"/>
  <path d="M93 431c22-99 116-153 211-134 95 18 151 26 236 2 72-20 121 59 83 130-36 68-131 63-207 92-88 33-146 83-239 42-65-29-95-81-84-132Z" fill="#DCE8E4" opacity=".72"/>
  <rect x="155" y="219" width="406" height="294" rx="12" fill="url(#b)"/>
  <rect x="205" y="419" width="36" height="44" rx="6" fill="#FFE7A3"/>
  <rect x="264" y="376" width="36" height="87" rx="6" fill="#FFC247"/>
  <rect x="323" y="335" width="36" height="128" rx="6" fill="#EAF7FF"/>
  <rect x="382" y="294" width="36" height="169" rx="6" fill="#FFC247"/>
  <path d="M203 344c48-18 72-68 116-61 51 9 54 61 105 52 33-6 50-33 83-66" stroke="#EAF7FF" stroke-width="8" stroke-linecap="round"/>
  <circle cx="203" cy="344" r="8" fill="#FFE7A3"/>
  <circle cx="319" cy="283" r="8" fill="#FFE7A3"/>
  <circle cx="424" cy="335" r="8" fill="#FFE7A3"/>
  <circle cx="507" cy="269" r="8" fill="#FFE7A3"/>
  <rect x="434" y="118" width="144" height="135" rx="9" fill="#FFF1C7"/>
  <circle cx="481" cy="182" r="30" fill="#FFB22D"/>
  <path d="M481 153a30 30 0 0 1 29 38l-29-8v-30Z" fill="#0D3D58"/>
  <rect x="520" y="167" width="31" height="5" rx="2.5" fill="#0D3D58"/>
  <rect x="520" y="190" width="42" height="5" rx="2.5" fill="#D99E42"/>
  <path d="M121 278h83c25 0 45-20 45-45v-24" stroke="#0D3D58" stroke-width="5" stroke-linecap="round"/>
  <path d="M561 373h41c27 0 49 22 49 49v0c0 27-22 49-49 49h-39" stroke="#0D3D58" stroke-width="5" stroke-linecap="round"/>
  <path d="M80 565h154" stroke="#F59E0B" stroke-width="4" stroke-linecap="round"/>
  <circle cx="121" cy="278" r="12" fill="#FFB22D"/>
  <circle cx="651" cy="422" r="13" fill="#FFB22D"/>
  <rect width="720" height="720" filter="url(#grain)" opacity=".55"/>
</svg>
