<svg width="720" height="720" viewBox="0 0 720 720" fill="none" xmlns="http://www.w3.org/2000/svg">
  <defs>
    <linearGradient id="a" x1="166" y1="104" x2="596" y2="625" gradientUnits="userSpaceOnUse"><stop stop-color="#FFC247"/><stop offset="1" stop-color="#FFF0B8"/></linearGradient>
    <linearGradient id="b" x1="150" y1="182" x2="463" y2="574" gradientUnits="userSpaceOnUse"><stop stop-color="#0C344C"/><stop offset="1" stop-color="#72909A"/></linearGradient>
    <filter id="grain"><feTurbulence type="fractalNoise" baseFrequency=".85" numOctaves="3" stitchTiles="stitch"/><feColorMatrix type="saturate" values="0"/><feComponentTransfer><feFuncA type="table" tableValues="0 .15"/></feComponentTransfer><feBlend mode="multiply" in2="SourceGraphic"/></filter>
  </defs>
  <rect width="720" height="720" fill="#FFFDF8"/>
  <path d="M147 279c28-106 137-180 232-128 63 35 64 104 119 124 66 24 129 71 119 149-13 100-126 140-222 111-89-27-164 56-240 3-68-48-31-173-8-259Z" fill="url(#a)" opacity=".76"/>
  <path d="M121 426c9-89 87-166 188-151 100 15 159 41 239 21 70-18 120 58 81 128-39 71-133 70-204 92-94 28-128 72-220 36-61-24-91-61-84-126Z" fill="#DDE8E5" opacity=".72"/>
  <rect x="182" y="201" width="312" height="342" rx="10" fill="url(#b)"/>
  <rect x="223" y="259" width="141" height="8" rx="4" fill="#EAF7FF"/>
  <rect x="223" y="286" width="207" height="6" rx="3" fill="#8DB6C3"/>
  <rect x="223" y="312" width="168" height="6" rx="3" fill="#8DB6C3"/>
  <rect x="223" y="413" width="225" height="11" rx="5.5" fill="#EAF7FF"/>
  <rect x="223" y="444" width="155" height="6" rx="3" fill="#8DB6C3"/>
  <rect x="223" y="469" width="194" height="6" rx="3" fill="#8DB6C3"/>
  <path d="M344 379v-79m0 0-34 34m34-34 34 34" stroke="#FFC247" stroke-width="12" stroke-linecap="round" stroke-linejoin="round"/>
  <path d="M111 263h92c22 0 40-18 40-40v-20c0-22 18-40 40-40h52" stroke="#0D3D58" stroke-width="5" stroke-linecap="round"/>
  <path d="M485 213h54c26 0 47 21 47 47v78c0 26 21 47 47 47h32" stroke="#0D3D58" stroke-width="5" stroke-linecap="round"/>
  <path d="M78 556h142c28 0 51-23 51-51v-26" stroke="#F59E0B" stroke-width="4" stroke-linecap="round"/>
  <rect x="454" y="108" width="132" height="168" rx="7" fill="#FFE7A3"/>
  <path d="M454 108h132v36c-24 13-32 34-27 61-29-17-63-21-105-15v-82Z" fill="#FF9E26" opacity=".68"/>
  <rect x="481" y="177" width="70" height="6" rx="3" fill="#0D3D58"/>
  <rect x="481" y="202" width="84" height="5" rx="2.5" fill="#D99E42"/>
  <rect x="481" y="225" width="48" height="5" rx="2.5" fill="#0D3D58"/>
  <circle cx="110" cy="263" r="12" fill="#FFB22D"/>
  <circle cx="665" cy="385" r="10" fill="#FFB22D"/>
  <rect width="720" height="720" filter="url(#grain)" opacity=".55"/>
</svg>
